<?xml version="1.0" encoding="utf-8"?><svg xmlns="http://www.w3.org/2000/svg" xmlns:xlink="http://www.w3.org/1999/xlink"><symbol viewBox="0 0 448 512" id="bars" xmlns="http://www.w3.org/2000/svg"><path d="M436 124H12c-6.627 0-12-5.373-12-12V80c0-6.627 5.373-12 12-12h424c6.627 0 12 5.373 12 12v32c0 6.627-5.373 12-12 12zm0 160H12c-6.627 0-12-5.373-12-12v-32c0-6.627 5.373-12 12-12h424c6.627 0 12 5.373 12 12v32c0 6.627-5.373 12-12 12zm0 160H12c-6.627 0-12-5.373-12-12v-32c0-6.627 5.373-12 12-12h424c6.627 0 12 5.373 12 12v32c0 6.627-5.373 12-12 12z"/></symbol><symbol viewBox="0 0 384 512" id="bookmark" xmlns="http://www.w3.org/2000/svg"><path d="M336 0H48C21.49 0 0 21.49 0 48v464l192-112 192 112V48c0-26.51-21.49-48-48-48zm0 428.43l-144-84-144 84V54a6 6 0 016-6h276c3.314 0 6 2.683 6 5.996V428.43z"/></symbol><symbol viewBox="0 0 512 512" id="clock" xmlns="http://www.w3.org/2000/svg"><path d="M256 8C119 8 8 119 8 256s111 248 248 248 248-111 248-248S393 8 256 8zm0 448c-110.5 0-200-89.5-200-200S145.5 56 256 56s200 89.5 200 200-89.5 200-200 200zm61.8-104.4l-84.9-61.7c-3.1-2.3-4.9-5.9-4.9-9.7V116c0-6.6 5.4-12 12-12h32c6.6 0 12 5.4 12 12v141.7l66.8 48.6c5.4 3.9 6.5 11.4 2.6 16.8L334.6 349c-3.9 5.3-11.4 6.5-16.8 2.6z"/></symbol><symbol viewBox="0 0 640 512" id="cloud-download-alt" xmlns="http://www.w3.org/2000/svg"><path d="M537.6 226.6c4.1-10.7 6.4-22.4 6.4-34.6 0-53-43-96-96-96-19.7 0-38.1 6-53.3 16.2C367 64.2 315.3 32 256 32c-88.4 0-160 71.6-160 160 0 2.7.1 5.4.2 8.1C40.2 219.8 0 273.2 0 336c0 79.5 64.5 144 144 144h368c70.7 0 128-57.3 128-128 0-61.9-44-113.6-102.4-125.4zm-132.9 88.7L299.3 420.7c-6.2 6.2-16.4 6.2-22.6 0L171.3 315.3c-10.1-10.1-2.9-27.3 11.3-27.3H248V176c0-8.8 7.2-16 16-16h48c8.8 0 16 7.2 16 16v112h65.4c14.2 0 21.4 17.2 11.3 27.3z"/></symbol><symbol viewBox="0 0 576 512" id="code" xmlns="http://www.w3.org/2000/svg"><path d="M234.8 511.7L196 500.4c-4.2-1.2-6.7-5.7-5.5-9.9L331.3 5.8c1.2-4.2 5.7-6.7 9.9-5.5L380 11.6c4.2 1.2 6.7 5.7 5.5 9.9L244.7 506.2c-1.2 4.3-5.6 6.7-9.9 5.5zm-83.2-121.1l27.2-29c3.1-3.3 2.8-8.5-.5-11.5L72.2 256l106.1-94.1c3.4-3 3.6-8.2.5-11.5l-27.2-29c-3-3.2-8.1-3.4-11.3-.4L2.5 250.2c-3.4 3.2-3.4 8.5 0 11.7L140.3 391c3.2 3 8.2 2.8 11.3-.4zm284.1.4l137.7-129.1c3.4-3.2 3.4-8.5 0-11.7L435.7 121c-3.2-3-8.3-2.9-11.3.4l-27.2 29c-3.1 3.3-2.8 8.5.5 11.5L503.8 256l-106.1 94.1c-3.4 3-3.6 8.2-.5 11.5l27.2 29c3.1 3.2 8.1 3.4 11.3.4z"/></symbol><symbol viewBox="0 0 576 512" id="desktop" xmlns="http://www.w3.org/2000/svg"><path d="M528 0H48C21.5 0 0 21.5 0 48v288c0 26.5 21.5 48 48 48h480c26.5 0 48-21.5 48-48V48c0-26.5-21.5-48-48-48zm-6 336H54c-3.3 0-6-2.7-6-6V54c0-3.3 2.7-6 6-6h468c3.3 0 6 2.7 6 6v276c0 3.3-2.7 6-6 6zm-42 152c0 13.3-10.7 24-24 24H120c-13.3 0-24-10.7-24-24s10.7-24 24-24h98.7l18.6-55.8c1.6-4.9 6.2-8.2 11.4-8.2h78.7c5.2 0 9.8 3.3 11.4 8.2l18.6 55.8H456c13.3 0 24 10.7 24 24z"/></symbol><symbol viewBox="0 0 512 512" id="envelope" xmlns="http://www.w3.org/2000/svg"><path d="M464 64H48C21.49 64 0 85.49 0 112v288c0 26.51 21.49 48 48 48h416c26.51 0 48-21.49 48-48V112c0-26.51-21.49-48-48-48zm0 48v40.805c-22.422 18.259-58.168 46.651-134.587 106.49-16.841 13.247-50.201 45.072-73.413 44.701-23.208.375-56.579-31.459-73.413-44.701C106.18 199.465 70.425 171.067 48 152.805V112h416zM48 400V214.398c22.914 18.251 55.409 43.862 104.938 82.646 21.857 17.205 60.134 55.186 103.062 54.955 42.717.231 80.509-37.199 103.053-54.947 49.528-38.783 82.032-64.401 104.947-82.653V400H48z"/></symbol><symbol viewBox="0 0 512 512" id="envelope-solid" xmlns="http://www.w3.org/2000/svg"><path d="M502.3 190.8c3.9-3.1 9.7-.2 9.7 4.7V400c0 26.5-21.5 48-48 48H48c-26.5 0-48-21.5-48-48V195.6c0-5 5.7-7.8 9.7-4.7 22.4 17.4 52.1 39.5 154.1 113.6 21.1 15.4 56.7 47.8 92.2 47.6 35.7.3 72-32.8 92.3-47.6 102-74.1 131.6-96.3 154-113.7zM256 320c23.2.4 56.6-29.2 73.4-41.4 132.7-96.3 142.8-104.7 173.4-128.7 5.8-4.5 9.2-11.5 9.2-18.9v-19c0-26.5-21.5-48-48-48H48C21.5 64 0 85.5 0 112v19c0 7.4 3.4 14.3 9.2 18.9 30.6 23.9 40.7 32.4 173.4 128.7 16.8 12.2 50.2 41.8 73.4 41.4z"/></symbol><symbol viewBox="0 0 576 512" id="eye" xmlns="http://www.w3.org/2000/svg"><path d="M288 144a110.94 110.94 0 00-31.24 5 55.4 55.4 0 017.24 27 56 56 0 01-56 56 55.4 55.4 0 01-27-7.24A111.71 111.71 0 10288 144zm284.52 97.4C518.29 135.59 410.93 64 288 64S57.68 135.64 3.48 241.41a32.35 32.35 0 000 29.19C57.71 376.41 165.07 448 288 448s230.32-71.64 284.52-177.41a32.35 32.35 0 000-29.19zM288 400c-98.65 0-189.09-55-237.93-144C98.91 167 189.34 112 288 112s189.09 55 237.93 144C477.1 345 386.66 400 288 400z"/></symbol><symbol viewBox="0 0 512 512" id="folder" xmlns="http://www.w3.org/2000/svg"><path d="M464 128H272l-54.63-54.63c-6-6-14.14-9.37-22.63-9.37H48C21.49 64 0 85.49 0 112v288c0 26.51 21.49 48 48 48h416c26.51 0 48-21.49 48-48V176c0-26.51-21.49-48-48-48zm0 272H48V112h140.12l54.63 54.63c6 6 14.14 9.37 22.63 9.37H464v224z"/></symbol><symbol viewBox="0 0 640 512" id="laptop" xmlns="http://www.w3.org/2000/svg"><path d="M624 416H381.54c-.74 19.81-14.71 32-32.74 32H288c-18.69 0-33.02-17.47-32.77-32H16c-8.8 0-16 7.2-16 16v16c0 35.2 28.8 64 64 64h512c35.2 0 64-28.8 64-64v-16c0-8.8-7.2-16-16-16zM576 48c0-26.4-21.6-48-48-48H112C85.6 0 64 21.6 64 48v336h512V48zm-64 272H128V64h384v256z"/></symbol><symbol viewBox="0 0 512 512" id="lemon" xmlns="http://www.w3.org/2000/svg"><path d="M484.112 27.889C455.989-.233 416.108-8.057 387.059 8.865 347.604 31.848 223.504-41.111 91.196 91.197-41.277 223.672 31.923 347.472 8.866 387.058c-16.922 29.051-9.1 68.932 19.022 97.054 28.135 28.135 68.011 35.938 97.057 19.021 39.423-22.97 163.557 49.969 295.858-82.329 132.474-132.477 59.273-256.277 82.331-295.861 16.922-29.05 9.1-68.931-19.022-97.054zm-22.405 72.894c-38.8 66.609 45.6 165.635-74.845 286.08-120.44 120.443-219.475 36.048-286.076 74.843-22.679 13.207-64.035-27.241-50.493-50.488 38.8-66.609-45.6-165.635 74.845-286.08C245.573 4.702 344.616 89.086 411.219 50.292c22.73-13.24 64.005 27.288 50.488 50.491zm-169.861 8.736c1.37 10.96-6.404 20.957-17.365 22.327-54.846 6.855-135.779 87.787-142.635 142.635-1.373 10.989-11.399 18.734-22.326 17.365-10.961-1.37-18.735-11.366-17.365-22.326 9.162-73.286 104.167-168.215 177.365-177.365 10.953-1.368 20.956 6.403 22.326 17.364z"/></symbol><symbol viewBox="0 0 320 512" id="long-arrow-down" xmlns="http://www.w3.org/2000/svg"><path d="M300.3 327.5l-19.6-19.6c-4.8-4.8-12.5-4.7-17.1.2L186 388.8V44c0-6.6-5.4-12-12-12h-28c-6.6 0-12 5.4-12 12v344.8l-77.5-80.7c-4.7-4.8-12.4-4.9-17.1-.2l-19.6 19.6c-4.7 4.7-4.7 12.3 0 17l131.8 131.8c4.7 4.7 12.3 4.7 17 0l131.8-131.8c4.6-4.7 4.6-12.3-.1-17z"/></symbol><symbol viewBox="0 0 384 512" id="map-marker" xmlns="http://www.w3.org/2000/svg"><path d="M172.268 501.67C26.97 291.031 0 269.413 0 192 0 85.961 85.961 0 192 0s192 85.961 192 192c0 77.413-26.97 99.031-172.268 309.67-9.535 13.774-29.93 13.773-39.464 0z"/></symbol><symbol viewBox="0 0 448 512" id="phone-square" xmlns="http://www.w3.org/2000/svg"><path d="M400 32H48C21.49 32 0 53.49 0 80v352c0 26.51 21.49 48 48 48h352c26.51 0 48-21.49 48-48V80c0-26.51-21.49-48-48-48zM94 416c-7.033 0-13.057-4.873-14.616-11.627l-14.998-65a15 15 0 018.707-17.16l69.998-29.999a15 15 0 0117.518 4.289l30.997 37.885c48.944-22.963 88.297-62.858 110.781-110.78l-37.886-30.997a15.001 15.001 0 01-4.289-17.518l30-69.998a15 15 0 0117.16-8.707l65 14.998A14.997 14.997 0 01384 126c0 160.292-129.945 290-290 290z"/></symbol><symbol viewBox="0 0 576 512" id="puzzle-piece" xmlns="http://www.w3.org/2000/svg"><path d="M519.442 288.651c-41.519 0-59.5 31.593-82.058 31.593C377.409 320.244 432 144 432 144s-196.288 80-196.288-3.297c0-35.827 36.288-46.25 36.288-85.985C272 19.216 243.885 0 210.539 0c-34.654 0-66.366 18.891-66.366 56.346 0 41.364 31.711 59.277 31.711 81.75C175.885 207.719 0 166.758 0 166.758v333.237s178.635 41.047 178.635-28.662c0-22.473-40-40.107-40-81.471 0-37.456 29.25-56.346 63.577-56.346 33.673 0 61.788 19.216 61.788 54.717 0 39.735-36.288 50.158-36.288 85.985 0 60.803 129.675 25.73 181.23 25.73 0 0-34.725-120.101 25.827-120.101 35.962 0 46.423 36.152 86.308 36.152C556.712 416 576 387.99 576 354.443c0-34.199-18.962-65.792-56.558-65.792z"/></symbol><symbol viewBox="0 0 512 512" id="quote-left" xmlns="http://www.w3.org/2000/svg"><path d="M464 256h-80v-64c0-35.3 28.7-64 64-64h8c13.3 0 24-10.7 24-24V56c0-13.3-10.7-24-24-24h-8c-88.4 0-160 71.6-160 160v240c0 26.5 21.5 48 48 48h128c26.5 0 48-21.5 48-48V304c0-26.5-21.5-48-48-48zm-288 0H96v-64c0-35.3 28.7-64 64-64h8c13.3 0 24-10.7 24-24V56c0-13.3-10.7-24-24-24h-8C71.6 32 0 103.6 0 192v240c0 26.5 21.5 48 48 48h128c26.5 0 48-21.5 48-48V304c0-26.5-21.5-48-48-48z"/></symbol><symbol viewBox="0 0 512 512" id="quote-right" xmlns="http://www.w3.org/2000/svg"><path d="M464 32H336c-26.5 0-48 21.5-48 48v128c0 26.5 21.5 48 48 48h80v64c0 35.3-28.7 64-64 64h-8c-13.3 0-24 10.7-24 24v48c0 13.3 10.7 24 24 24h8c88.4 0 160-71.6 160-160V80c0-26.5-21.5-48-48-48zm-288 0H48C21.5 32 0 53.5 0 80v128c0 26.5 21.5 48 48 48h80v64c0 35.3-28.7 64-64 64h-8c-13.3 0-24 10.7-24 24v48c0 13.3 10.7 24 24 24h8c88.4 0 160-71.6 160-160V80c0-26.5-21.5-48-48-48z"/></symbol><symbol viewBox="0 0 448 512" id="tablet" xmlns="http://www.w3.org/2000/svg"><path d="M256 416c0 17.7-14.3 32-32 32s-32-14.3-32-32c0-21.3 14.3-32 32-32s32 14.3 32 32zM448 48v416c0 26.5-21.5 48-48 48H48c-26.5 0-48-21.5-48-48V48C0 21.5 21.5 0 48 0h352c26.5 0 48 21.5 48 48zm-48 410V54c0-3.3-2.7-6-6-6H54c-3.3 0-6 2.7-6 6v404c0 3.3 2.7 6 6 6h340c3.3 0 6-2.7 6-6z"/></symbol><symbol viewBox="0 0 512 512" id="thumbs-up" xmlns="http://www.w3.org/2000/svg"><path d="M104 224H24c-13.255 0-24 10.745-24 24v240c0 13.255 10.745 24 24 24h80c13.255 0 24-10.745 24-24V248c0-13.255-10.745-24-24-24zM64 472c-13.255 0-24-10.745-24-24s10.745-24 24-24 24 10.745 24 24-10.745 24-24 24zM384 81.452c0 42.416-25.97 66.208-33.277 94.548h101.723c33.397 0 59.397 27.746 59.553 58.098.084 17.938-7.546 37.249-19.439 49.197l-.11.11c9.836 23.337 8.237 56.037-9.308 79.469 8.681 25.895-.069 57.704-16.382 74.757 4.298 17.598 2.244 32.575-6.148 44.632C440.202 511.587 389.616 512 346.839 512l-2.845-.001c-48.287-.017-87.806-17.598-119.56-31.725-15.957-7.099-36.821-15.887-52.651-16.178-6.54-.12-11.783-5.457-11.783-11.998v-213.77c0-3.2 1.282-6.271 3.558-8.521 39.614-39.144 56.648-80.587 89.117-113.111 14.804-14.832 20.188-37.236 25.393-58.902C282.515 39.293 291.817 0 312 0c24 0 72 8 72 81.452z"/></symbol><symbol viewBox="0 0 640 512" id="users" xmlns="http://www.w3.org/2000/svg"><path d="M96 224c35.3 0 64-28.7 64-64s-28.7-64-64-64-64 28.7-64 64 28.7 64 64 64zm448 0c35.3 0 64-28.7 64-64s-28.7-64-64-64-64 28.7-64 64 28.7 64 64 64zm32 32h-64c-17.6 0-33.5 7.1-45.1 18.6 40.3 22.1 68.9 62 75.1 109.4h66c17.7 0 32-14.3 32-32v-32c0-35.3-28.7-64-64-64zm-256 0c61.9 0 112-50.1 112-112S381.9 32 320 32 208 82.1 208 144s50.1 112 112 112zm76.8 32h-8.3c-20.8 10-43.9 16-68.5 16s-47.6-6-68.5-16h-8.3C179.6 288 128 339.6 128 403.2V432c0 26.5 21.5 48 48 48h288c26.5 0 48-21.5 48-48v-28.8c0-63.6-51.6-115.2-115.2-115.2zm-223.7-13.4C161.5 263.1 145.6 256 128 256H64c-35.3 0-64 28.7-64 64v32c0 17.7 14.3 32 32 32h65.9c6.3-47.4 34.9-87.3 75.2-109.4z"/></symbol></svg>